# xmcd
#
# Track frame offsets: 
#        150
#        10152
#        20571
#        32052
#        46025
#        55355
#        63788
#        73571
#        81389
#        93105
#        101536
#        111009
#
# Disc length: 1594 seconds
#
# Revision: 0
# Processed by: cddbd v1.5.2PL0 Copyright (c) Steve Scherf et al.
# Submitted via: ExactAudioCopy v0.95b3
#
DISCID=8e06380c
DTITLE=Johnny Cash - Songbook (Volume 4)
DYEAR=2006
DGENRE=Country
TTITLE0=Ballad Of A Teenage Queen
TTITLE1=There You Go
TTITLE2=Big River
TTITLE3=Oney
TTITLE4=Luther Played The Boogie
TTITLE5=Wreck Of The Old '97
TTITLE6=Born To Lose
TTITLE7=Hey Good Lookin'
TTITLE8=Port Of Lonely Hearts
TTITLE9=Country Boy
TTITLE10=New Mexico
TTITLE11=I Forgot To Remember To Forget
EXTD=
EXTT0=
EXTT1=
EXTT2=
EXTT3=
EXTT4=
EXTT5=
EXTT6=
EXTT7=
EXTT8=
EXTT9=
EXTT10=
EXTT11=
PLAYORDER=
